<svg width="30" height="30" viewBox="0 0 30 30" fill="none" xmlns="http://www.w3.org/2000/svg">
<path d="M10.2042 15.1115C10.2042 12.4364 12.3715 10.2673 15.0458 10.2673C17.7201 10.2673 19.8886 12.4364 19.8886 15.1115C19.8886 17.7866 17.7201 19.9557 15.0458 19.9557C12.3715 19.9557 10.2042 17.7866 10.2042 15.1115ZM7.58623 15.1115C7.58623 19.2326 10.9259 22.5732 15.0458 22.5732C19.1657 22.5732 22.5053 19.2326 22.5053 15.1115C22.5053 10.9904 19.1657 7.64979 15.0458 7.64979C10.9259 7.64979 7.58623 10.9904 7.58623 15.1115ZM21.0574 7.35393C21.0572 7.69882 21.1594 8.036 21.3508 8.32283C21.5422 8.60967 21.8144 8.83329 22.1329 8.96539C22.4514 9.0975 22.8019 9.13218 23.1401 9.06503C23.4783 8.99788 23.7889 8.83193 24.0328 8.58815C24.2767 8.34438 24.4429 8.03374 24.5103 7.6955C24.5777 7.35727 24.5433 7.00665 24.4115 6.68796C24.2797 6.36927 24.0563 6.09685 23.7697 5.90512C23.4831 5.7134 23.1461 5.61099 22.8013 5.61086H22.8007C22.3385 5.61107 21.8953 5.79476 21.5685 6.12159C21.2416 6.44841 21.0578 6.89164 21.0574 7.35393ZM9.17678 26.9397C7.76044 26.8752 6.99061 26.6392 6.47902 26.4399C5.80077 26.1757 5.31684 25.8612 4.80804 25.3529C4.29924 24.8446 3.98429 24.361 3.7214 23.6826C3.52197 23.1711 3.28605 22.4008 3.22167 20.9841C3.15124 19.4523 3.13718 18.9922 3.13718 15.1116C3.13718 11.231 3.1524 10.7722 3.22167 9.23918C3.28617 7.82242 3.52383 7.05365 3.7214 6.54064C3.98545 5.86219 4.29993 5.37812 4.80804 4.86917C5.31614 4.36022 5.79961 4.04518 6.47902 3.78222C6.99038 3.58274 7.76044 3.34675 9.17678 3.28234C10.7081 3.21189 11.1681 3.19783 15.0458 3.19783C18.9235 3.19783 19.384 3.21306 20.9165 3.28234C22.3329 3.34686 23.1014 3.5846 23.6143 3.78222C24.2925 4.04518 24.7765 4.36092 25.2853 4.86917C25.7941 5.37742 26.1079 5.86219 26.3719 6.54064C26.5713 7.05214 26.8073 7.82242 26.8716 9.23918C26.9421 10.7722 26.9561 11.231 26.9561 15.1116C26.9561 18.9922 26.9421 19.451 26.8716 20.9841C26.8071 22.4008 26.5701 23.1709 26.3719 23.6826C26.1079 24.361 25.7934 24.8451 25.2853 25.3529C24.7772 25.8607 24.2925 26.1757 23.6143 26.4399C23.1029 26.6393 22.3329 26.8753 20.9165 26.9397C19.3852 27.0102 18.9253 27.0242 15.0458 27.0242C11.1663 27.0242 10.7076 27.0102 9.17678 26.9397ZM9.0565 0.66808C7.50999 0.738529 6.45322 0.983819 5.53033 1.34304C4.57456 1.71399 3.76545 2.21167 2.95692 3.01915C2.14839 3.82663 1.65214 4.63725 1.28129 5.5933C0.922179 6.51704 0.67696 7.57353 0.606532 9.12049C0.534941 10.6699 0.518555 11.1652 0.518555 15.1115C0.518555 19.0578 0.534941 19.5531 0.606532 21.1025C0.67696 22.6496 0.922179 23.706 1.28129 24.6297C1.65214 25.5852 2.14851 26.3967 2.95692 27.2039C3.76533 28.011 4.57456 28.508 5.53033 28.88C6.45496 29.2392 7.50999 29.4845 9.0565 29.5549C10.6063 29.6254 11.1007 29.6429 15.0458 29.6429C18.9909 29.6429 19.4861 29.6265 21.0351 29.5549C22.5817 29.4845 23.6378 29.2392 24.5612 28.88C25.5164 28.508 26.3261 28.0113 27.1346 27.2039C27.9432 26.3964 28.4384 25.5852 28.8103 24.6297C29.1694 23.706 29.4158 22.6495 29.485 21.1025C29.5555 19.552 29.5719 19.0578 29.5719 15.1115C29.5719 11.1652 29.5555 10.6699 29.485 9.12049C29.4146 7.57341 29.1694 6.51646 28.8103 5.5933C28.4384 4.63783 27.9419 3.82791 27.1346 3.01915C26.3274 2.21039 25.5164 1.71399 24.5624 1.34304C23.6378 0.983819 22.5816 0.737366 21.0362 0.66808C19.4873 0.597632 18.9921 0.580078 15.0469 0.580078C11.1018 0.580078 10.6063 0.59647 9.0565 0.66808Z" fill="white"/>
</svg>
