<svg width="58" height="58" viewBox="0 0 58 58" fill="none" xmlns="http://www.w3.org/2000/svg">
<rect x="8" y="10" width="40" height="40" fill="white"/>
<path d="M22.933 39.8242V25.5565H18.1906V39.8242H22.9335H22.933ZM20.5628 23.6089C22.2162 23.6089 23.2456 22.5133 23.2456 21.1441C23.2146 19.7437 22.2162 18.6787 20.5942 18.6787C18.9712 18.6787 17.9111 19.7437 17.9111 21.144C17.9111 22.5131 18.9401 23.6087 20.5317 23.6087H20.5624L20.5628 23.6089ZM25.5579 39.8242H30.2999V31.8573C30.2999 31.4315 30.3309 31.0045 30.4561 30.7003C30.7988 29.848 31.5791 28.9657 32.8895 28.9657C34.605 28.9657 35.2917 30.274 35.2917 32.1922V39.8242H40.0336V31.6435C40.0336 27.2613 37.6943 25.222 34.5743 25.222C32.0163 25.222 30.8929 26.6517 30.2687 27.6255H30.3003V25.557H25.5582C25.6201 26.8955 25.5578 39.8247 25.5578 39.8247L25.5579 39.8242Z" fill="#FFCD3F"/>
</svg>
