<svg width="32" height="30" viewBox="0 0 32 30" fill="none" xmlns="http://www.w3.org/2000/svg">
<path d="M7.71803 29.5896V10.1403H1.25913V29.5896H7.7187H7.71803ZM4.48993 7.48529C6.74181 7.48529 8.14375 5.99181 8.14375 4.12539C8.1016 2.21644 6.74181 0.764648 4.53275 0.764648C2.32218 0.764648 0.878418 2.21644 0.878418 4.12522C0.878418 5.99164 2.27986 7.48512 4.4476 7.48512H4.48942L4.48993 7.48529ZM11.2931 29.5896H17.7515V18.7294C17.7515 18.1489 17.7937 17.5668 17.9643 17.1522C18.431 15.9903 19.4937 14.7876 21.2784 14.7876C23.6149 14.7876 24.5501 16.571 24.5501 19.1859V29.5896H31.0084V18.4379C31.0084 12.4642 27.8224 9.68432 23.5731 9.68432C20.0892 9.68432 18.5591 11.6333 17.709 12.9607H17.752V10.141H11.2935C11.3778 11.9655 11.2929 29.5902 11.2929 29.5902L11.2931 29.5896Z" fill="white"/>
</svg>
