<svg width="36" height="30" viewBox="0 0 36 30" fill="none" xmlns="http://www.w3.org/2000/svg">
<path d="M2.86538 13.1716C2.86538 13.1716 18.1239 6.74501 23.4158 4.48204C25.4445 3.57692 32.324 0.680306 32.324 0.680306C32.324 0.680306 35.4992 -0.586854 35.2346 2.49066C35.1463 3.75795 34.4408 8.1932 33.7352 12.9906C32.6768 19.7794 31.5302 27.2017 31.5302 27.2017C31.5302 27.2017 31.3538 29.2837 29.8544 29.6457C28.3551 30.0078 25.8854 28.3786 25.4445 28.0164C25.0916 27.7449 18.8295 23.6716 16.5363 21.6802C15.9189 21.1372 15.2133 20.051 16.6244 18.7837C19.7997 15.7967 23.5922 12.0855 25.8854 9.73208C26.9438 8.64582 28.0022 6.11137 23.5922 9.18889C17.3301 13.6243 11.1561 17.788 11.1561 17.788C11.1561 17.788 9.7449 18.6932 7.09895 17.8785C4.45288 17.0639 1.36589 15.9777 1.36589 15.9777C1.36589 15.9777 -0.750769 14.62 2.86538 13.1716Z" fill="white"/>
</svg>
