<svg width="108" height="108" viewBox="0 0 108 108" fill="none" xmlns="http://www.w3.org/2000/svg">
<path d="M48.42 73.665C46.53 73.665 44.775 73.215 43.2 72.315C39.6 70.245 37.53 66.015 37.53 60.66V47.34C37.53 42.03 39.6 37.755 43.2 35.685C46.8 33.615 51.48 33.93 56.115 36.63L67.68 43.29C72.27 45.945 74.925 49.86 74.925 54C74.925 58.14 72.27 62.055 67.68 64.71L56.115 71.37C53.505 72.9 50.85 73.665 48.42 73.665ZM48.465 41.085C47.745 41.085 47.115 41.22 46.62 41.535C45.18 42.39 44.325 44.505 44.325 47.34V60.66C44.325 63.495 45.135 65.61 46.62 66.465C48.06 67.32 50.31 66.96 52.785 65.52L64.35 58.86C66.825 57.42 68.22 55.665 68.22 54C68.22 52.335 66.825 50.535 64.35 49.14L52.785 42.48C51.165 41.535 49.68 41.085 48.465 41.085Z" fill="white" fill-opacity="0.22"/>
<path d="M54 102.375C27.315 102.375 5.625 80.685 5.625 54C5.625 27.315 27.315 5.625 54 5.625C80.685 5.625 102.375 27.315 102.375 54C102.375 80.685 80.685 102.375 54 102.375ZM54 12.375C31.05 12.375 12.375 31.05 12.375 54C12.375 76.95 31.05 95.625 54 95.625C76.95 95.625 95.625 76.95 95.625 54C95.625 31.05 76.95 12.375 54 12.375Z" fill="white" fill-opacity="0.22"/>
</svg>
